<svg width="37" height="17" viewBox="0 0 37 17" fill="none" xmlns="http://www.w3.org/2000/svg">
<path d="M7.1453 2.76594C7.57329 2.23062 7.86372 1.51185 7.78712 0.777344C7.16061 0.808497 6.39607 1.19068 5.95344 1.72641C5.556 2.18519 5.20424 2.93406 5.29595 3.63778C5.99924 3.69878 6.70188 3.28624 7.1453 2.76594Z" fill="black"/>
<path d="M7.77769 3.77361C6.75634 3.71277 5.88794 4.35327 5.40019 4.35327C4.91218 4.35327 4.16528 3.80426 3.35744 3.81906C2.30599 3.8345 1.33037 4.429 0.79681 5.37453C-0.300641 7.26605 0.507193 10.0718 1.57441 11.6124C2.09267 12.3745 2.71726 13.2137 3.54026 13.1836C4.31786 13.1531 4.62265 12.6801 5.56785 12.6801C6.51236 12.6801 6.7869 13.1836 7.61004 13.1683C8.46364 13.1531 8.9973 12.4058 9.51556 11.6429C10.1101 10.7741 10.3535 9.93516 10.3688 9.88911C10.3535 9.87386 8.7228 9.24828 8.70768 7.37248C8.69228 5.80185 9.98795 5.05477 10.0489 5.00844C9.31725 3.92628 8.17403 3.80426 7.77769 3.77361Z" fill="black"/>
<path d="M16.6721 1.64844C18.892 1.64844 20.4378 3.17863 20.4378 5.40647C20.4378 7.64226 18.8602 9.1804 16.6164 9.1804H14.1586V13.0891H12.3828V1.64844L16.6721 1.64844ZM14.1586 7.68982H16.1962C17.7423 7.68982 18.6222 6.85744 18.6222 5.41442C18.6222 3.97155 17.7423 3.14697 16.2041 3.14697H14.1586V7.68982Z" fill="black"/>
<path d="M20.8984 10.7184C20.8984 9.25948 22.0163 8.36364 23.9986 8.25261L26.2818 8.11789V7.47574C26.2818 6.54809 25.6554 5.99312 24.6091 5.99312C23.6178 5.99312 22.9993 6.46872 22.8489 7.21409H21.2315C21.3266 5.7076 22.6109 4.59766 24.6724 4.59766C26.6941 4.59766 27.9863 5.66799 27.9863 7.34086V13.0889H26.3451V11.7173H26.3056C25.8221 12.645 24.7675 13.2316 23.6735 13.2316C22.0402 13.2316 20.8984 12.2168 20.8984 10.7184ZM26.2818 9.96524V9.3072L24.2283 9.43398C23.2055 9.50539 22.6268 9.95729 22.6268 10.6709C22.6268 11.4002 23.2294 11.8759 24.1491 11.8759C25.3462 11.8759 26.2818 11.0513 26.2818 9.96524Z" fill="black"/>
<path d="M29.5355 16.159V14.7715C29.6621 14.8031 29.9475 14.8031 30.0903 14.8031C30.8831 14.8031 31.3113 14.4702 31.5728 13.614C31.5728 13.5981 31.7236 13.1065 31.7236 13.0986L28.7109 4.75H30.5659L32.6751 11.5368H32.7066L34.8158 4.75H36.6234L33.4994 13.5266C32.7861 15.5485 31.9616 16.1986 30.2332 16.1986C30.0903 16.1986 29.6621 16.1827 29.5355 16.159Z" fill="black"/>
</svg>
