<svg width="24" height="24" viewBox="0 0 24 24" fill="none" xmlns="http://www.w3.org/2000/svg">
    <path
        d="M11.5586 3.08966L3.68456 6.46499C3.19243 6.67594 2.91824 7.20334 3.02721 7.7237C3.13618 8.24407 3.59316 8.62379 4.12747 8.62379V8.90507C4.12747 9.37269 4.5036 9.7489 4.97112 9.7489H19.032C19.4995 9.7489 19.8756 9.37269 19.8756 8.90507V8.62379C20.4099 8.62379 20.8704 8.24758 20.9759 7.7237C21.0813 7.19982 20.8072 6.67243 20.3185 6.46499L12.4445 3.08966C12.1632 2.97011 11.8398 2.97011 11.5586 3.08966ZM7.50208 10.874H5.25234V17.7759C5.23125 17.7864 5.21016 17.8005 5.18907 17.8145L3.50176 18.9396C3.09048 19.2139 2.90418 19.7272 3.0483 20.2019C3.19243 20.6765 3.63183 21 4.12747 21H19.8756C20.3713 21 20.8072 20.6765 20.9513 20.2019C21.0954 19.7272 20.9126 19.2139 20.4978 18.9396L18.8105 17.8145C18.7894 17.8005 18.7683 17.7899 18.7472 17.7759V10.874H16.501V17.6247H15.0949V10.874H12.8452V17.6247H11.1579V10.874H8.90816V17.6247H7.50208V10.874ZM12.0015 5.24846C12.2999 5.24846 12.586 5.367 12.7969 5.578C13.0079 5.789 13.1264 6.07517 13.1264 6.37357C13.1264 6.67197 13.0079 6.95815 12.7969 7.16914C12.586 7.38014 12.2999 7.49868 12.0015 7.49868C11.7032 7.49868 11.4171 7.38014 11.2061 7.16914C10.9952 6.95815 10.8767 6.67197 10.8767 6.37357C10.8767 6.07517 10.9952 5.789 11.2061 5.578C11.4171 5.367 11.7032 5.24846 12.0015 5.24846Z"
        fill="white" fill-opacity="0.6" />
</svg>