<svg
    class="cursor-pointer"
    width="17"
    height="16"
    viewBox="0 0 17 16"
    fill="none"
    xmlns="http://www.w3.org/2000/svg"
    >
    <path
        d="M11.1641 2.66797H12.4974C12.851 2.66797 13.1902 2.80844 13.4402 3.05849C13.6903 3.30854 13.8307 3.64768 13.8307 4.0013V13.3346C13.8307 13.6883 13.6903 14.0274 13.4402 14.2774C13.1902 14.5275 12.851 14.668 12.4974 14.668H4.4974C4.14377 14.668 3.80464 14.5275 3.55459 14.2774C3.30454 14.0274 3.16406 13.6883 3.16406 13.3346V4.0013C3.16406 3.64768 3.30454 3.30854 3.55459 3.05849C3.80464 2.80844 4.14377 2.66797 4.4974 2.66797H5.83073"
        stroke="black"
        stroke-opacity="0.6"
        stroke-width="2"
        stroke-linecap="round"
        stroke-linejoin="round"
    />
    <path
        d="M10.5026 1.33203H6.5026C6.13441 1.33203 5.83594 1.63051 5.83594 1.9987V3.33203C5.83594 3.70022 6.13441 3.9987 6.5026 3.9987H10.5026C10.8708 3.9987 11.1693 3.70022 11.1693 3.33203V1.9987C11.1693 1.63051 10.8708 1.33203 10.5026 1.33203Z"
        stroke="black"
        stroke-opacity="0.6"
        stroke-width="2"
        stroke-linecap="round"
        stroke-linejoin="round"
    />
    </svg>