<svg width="24" height="24" viewBox="0 0 24 24" fill="none" xmlns="http://www.w3.org/2000/svg">
    <path
        d="M21 12C21 16.9706 16.9706 21 12 21C7.02942 21 3 16.9706 3 12C3 7.02942 7.02942 3 12 3C16.9706 3 21 7.02942 21 12ZM15.8594 10.7179C16.0386 9.52032 15.1267 8.87653 13.8798 8.44707L14.2843 6.82482L13.2967 6.57873L12.9029 8.15823C12.6433 8.09353 12.3767 8.03252 12.1117 7.97206L12.5083 6.38219L11.5213 6.1361L11.1165 7.75777C10.9016 7.70881 10.6907 7.66044 10.4859 7.60956L10.4871 7.60448L9.12508 7.26444L8.86237 8.31911C8.86237 8.31911 9.59511 8.48702 9.57965 8.4974C9.97964 8.59724 10.0519 8.8619 10.0398 9.0717L9.57907 10.9198C9.60665 10.9268 9.64236 10.9369 9.68174 10.9527C9.64882 10.9445 9.61366 10.9355 9.57737 10.9268L8.93154 13.5157C8.88259 13.6372 8.75855 13.8195 8.47897 13.7503C8.4888 13.7646 7.76115 13.5711 7.76115 13.5711L7.27086 14.7015L8.55605 15.0218C8.79513 15.0817 9.02946 15.1444 9.26008 15.2035L8.85138 16.8442L9.83782 17.0903L10.2426 15.467C10.5042 15.5379 10.7665 15.6059 11.0296 15.6712L10.6262 17.2869L11.6138 17.533L12.0225 15.8953C13.7065 16.214 14.9729 16.0854 15.5059 14.5625C15.9354 13.3362 15.4845 12.6289 14.5985 12.1676C15.2437 12.0189 15.7298 11.5945 15.8594 10.7179ZM13.603 13.8816C13.2978 15.1079 11.233 14.445 10.5635 14.2787L11.1058 12.105C11.7753 12.272 13.922 12.6028 13.603 13.8816ZM13.9085 10.7002C13.63 11.8156 11.9114 11.2489 11.3539 11.1099L11.8455 9.1384C12.4031 9.27732 14.1985 9.53661 13.9085 10.7002Z"
        fill="white" fill-opacity="0.6" />
</svg>