<svg width="24" height="24" viewBox="0 0 24 24" fill="none" xmlns="http://www.w3.org/2000/svg">
    <path
        d="M4.125 3C2.67715 3 1.5 4.15313 1.5 5.57143V18.4286C1.5 19.8469 2.67715 21 4.125 21H19.875C21.3229 21 22.5 19.8469 22.5 18.4286V9.42857C22.5 8.01027 21.3229 6.85714 19.875 6.85714H4.78125C4.42031 6.85714 4.125 6.56786 4.125 6.21429C4.125 5.86071 4.42031 5.57143 4.78125 5.57143H19.875C20.601 5.57143 21.1875 4.99688 21.1875 4.28571C21.1875 3.57455 20.601 3 19.875 3H4.125ZM18.5625 12.6429C18.9106 12.6429 19.2444 12.7783 19.4906 13.0194C19.7367 13.2606 19.875 13.5876 19.875 13.9286C19.875 14.2696 19.7367 14.5966 19.4906 14.8377C19.2444 15.0788 18.9106 15.2143 18.5625 15.2143C18.2144 15.2143 17.8806 15.0788 17.6344 14.8377C17.3883 14.5966 17.25 14.2696 17.25 13.9286C17.25 13.5876 17.3883 13.2606 17.6344 13.0194C17.8806 12.7783 18.2144 12.6429 18.5625 12.6429Z"
        fill="white" fill-opacity="0.6" />
</svg>